<?xml version="1.0" encoding="UTF-8"?>
<!DOCTYPE svg PUBLIC "-//W3C//DTD SVG 1.1//EN" "http://www.w3.org/Graphics/SVG/1.1/DTD/svg11.dtd">
<!-- Creator: CorelDRAW 2018 (64 Bit Versão de avaliação) -->
<svg xmlns="http://www.w3.org/2000/svg" xml:space="preserve" width="152.4mm" height="152.4mm" version="1.1" style="shape-rendering:geometricPrecision; text-rendering:geometricPrecision; image-rendering:optimizeQuality; fill-rule:evenodd; clip-rule:evenodd"
viewBox="0 0 15240 15240"
 xmlns:xlink="http://www.w3.org/1999/xlink">
 <defs>
  <style type="text/css">
   <![CDATA[
    .str0 {stroke:#4173E0;stroke-width:127;stroke-miterlimit:22.9256}
    .str1 {stroke:#4173E0;stroke-width:63.5;stroke-miterlimit:22.9256}
    .fil15 {fill:#053D39}
    .fil16 {fill:#096452}
    .fil5 {fill:#15E2A1}
    .fil0 {fill:#1D1229}
    .fil1 {fill:#4173E0}
    .fil7 {fill:#64696E}
    .fil14 {fill:#696E73}
    .fil12 {fill:#6A7078}
    .fil17 {fill:#9EA1A5}
    .fil13 {fill:#A29E0A}
    .fil11 {fill:#BBB607}
    .fil10 {fill:#BFB90A}
    .fil9 {fill:#C0BB00}
    .fil2 {fill:#D3D3D0}
    .fil8 {fill:#F5F6F6}
    .fil6 {fill:#F8FAFA}
    .fil3 {fill:#FBFCFC}
    .fil4 {fill:#FDFDFD}
   ]]>
  </style>
 </defs>
 <g id="Camada_x0020_1">
  <metadata id="CorelCorpID_0Corel-Layer"/>
  <path class="fil0" d="M7914.87 13362.71c-83.15,-49.1 -461.82,-526.05 -546.95,-611.85l-949.85 -1062.12c-165.95,-194.01 -597.89,-675.89 -670.66,-835.52l4029.69 -1.03c-179.15,345.08 -1752.93,2433.19 -1862.23,2510.52zm-1999.43 -2714.69c53.17,-145.06 226.5,-508.1 377.58,-519.08 72.61,96.37 92.72,374.02 110.91,519.08 -241.88,-40.28 17.57,-162.15 -266.88,-123.1 -201.96,56.55 42.15,108.07 -221.61,123.1zm1275.51 -58.29c-113.56,-424.77 270.88,-573.47 428.93,-396.39 150.35,168.56 -14.92,591.12 -428.93,396.39zm2597.27 -353.65c51.71,190.99 204.04,79.95 243.13,220.8 62.16,224.24 -424.25,291.56 -388.18,15.7 159.76,0.41 101.08,164.15 292.08,46.39 -37.89,-116.63 -149.84,-114.63 -246.24,-171.54l-1.3 -152.29c195.72,-102.42 331.89,-107.61 386.15,109.8 -218.8,-10.46 -0.1,19.81 -138.71,-58.7 -49.53,-28.01 -91.37,-44.69 -146.93,-10.16zm-397.17 311.16c45.37,-78.4 57.89,-128.69 82.89,-243.78 31.55,-145.32 -1.56,-173.7 142.51,-171.54 -12.78,110.78 -46.98,306.28 -98.17,398.9 -91.79,166.1 -570.82,252.26 -352.43,-318.14 44.96,-117.45 19.85,-63.16 90.17,-85.07 120.89,179.34 -265.52,452.73 135.03,419.63zm-726.89 -28.78c-36.9,-95.34 -92.09,-3.13 -114.6,-123.1l235.28 -24.94c-3.17,268.57 -109.3,294.12 -380.23,267.29 -368.59,-368.84 290.94,-742.96 405.33,-344.05 -206.9,19.29 -34.3,-26.69 -189.8,-69.38 -269.43,-74.04 -348.42,501.63 44.02,294.18zm-508.71 -375.46c6.81,-3.79 16.12,-19.55 19.86,-12.47l82.27 -11.85 -35.5 91.9 -67.25 357.91c-35.44,81.84 -9.51,49.82 -84.04,79.53 -104.15,-69.01 -64.13,-121.1 -184.66,-311.83 -88.92,263.7 -5.92,240.35 -127.23,311.83 -30.76,-51.77 -77.8,105.19 17.1,-264.57 24.79,-96.77 42.36,-186.88 76.61,-255.64 168.96,21.04 96.57,107.61 231.59,315.88l71.25 -300.69zm-1207.47 505.43c-18.14,-28.58 -47.82,-6.41 -10.19,-166.46 20.79,-88.46 26.92,-93.44 34.46,-186.42 -38.98,64.4 -69.23,123.21 -104,206.13 -63.66,151.93 -16.89,138.03 -176.7,146.75l-31.29 -382.17c-36.38,102.93 -18.09,313.05 -117.72,382.17 -45.89,-69.68 -46.51,91.85 -24.22,-122.23l94.64 -398.59 136.22 1.54 21.57 335.02c40.96,-61.53 72.71,-134.7 118.19,-219.31 64.86,-120.74 49.42,-117.25 205.55,-117.25 -0.68,96.57 -25.47,175.85 -45.74,272.37 -24.27,115.45 -12.16,191.8 -100.77,248.45zm-4669.52 -2290.85l378.15 -4.67c56.81,72.66 21.1,-13.7 43.24,103.6l-3.01 1086.55 1066.06 22.21 -2.34 344.93 -1550.44 0.36 -13.62 -1208.36c-1.09,-46.08 -8.47,-149.17 -5.77,-187.81 9.93,-143.26 -20.27,-118.84 87.73,-156.81zm8282.64 7.85c334.19,-61.88 1152.44,-67.88 1399.1,121.46l4.89 148.5c69.74,50.23 38.72,2.72 64.44,99.49 36.44,137.11 55.93,970.84 -175.92,1115.38 -217.56,135.62 -1100.42,77.23 -1387.51,56.09l-17.62 -1392.16c17.93,-167.08 -4.11,-114.07 112.62,-148.76zm-1273.06 763.53l-3.33 792.47 -450.91 -4.56c-51.82,-172.05 -9.3,-899.92 -9.72,-1183.78l2.6 -276.22c0,-0.1 -46.1,10.93 39.97,-99.03 112.46,-31.1 906.97,-23.09 1083.67,1.59 434.23,60.65 448.42,309.87 412.51,749.47l-11.54 813.25 -457.2 -5.44c-54.36,-171.79 -32.64,-729.71 -25.88,-937.17l-36.33 -182.98 -505.23 -6.41c-2.54,81.33 9.41,278.42 -38.61,338.81zm4323.38 -153.42c123.54,53.83 63.87,430.1 59.46,557.77 -8.68,246.91 -52.5,313.46 -272.29,363.29 -310.95,70.45 -918.87,27.09 -1264.8,23.4l-13.04 -372.43c222.85,2.21 440.72,10.73 660.36,14.83 253.16,4.77 376.23,16.06 398.31,-242.71l-1049.74 -10.72 -15.17 -202.02c25.36,-609.39 -56.86,-652.49 306.58,-725.82 372.39,-75.12 874.13,-42.53 1247.76,-23.55l-4.52 375.71c-246.72,66.5 -661.3,-5.13 -918.98,22.22 -154.67,16.42 -152.12,35.76 -137.1,183.44 267.08,78.87 785.46,-41.3 1003.17,36.59zm-4889.78 127.1l1.25 184.57c-109.04,72.2 -362.35,38.02 -496.13,40.44 -180.24,3.23 -360.9,5.38 -541.03,10.41 -25.37,295.66 441.04,204.23 698.14,229.83 83.06,-38.59 219.07,-33.87 332.99,-25.66l14.66 299.98c-27.13,87.33 7.38,41.56 -67.98,79.84 -348.74,0.1 -1227.7,96.31 -1405.29,-141.01 -137.57,-183.9 -88.66,-794.01 -95.73,-1109.89 -3.12,-136.85 -43.14,-265.13 76.76,-320.5l1484.65 -1.07 -4.68 400.29 -1048.18 20.47 2.03 193.35 1021.52 3.18c8.88,19.39 30.45,4.56 27.02,135.77zm-2670.13 26.73c6.39,180.06 13.98,256.67 90.27,398.6l450.55 12.88 -5.56 -172.21c-97.29,-49.97 -47.4,-14.98 -112.47,-33.45l-128.27 -47.98 -3.32 -177.75 4.47 -104.88 711.24 -7.08c73.28,60.7 52.86,694.88 34.77,813.1 -20.53,133.82 8.26,30.02 -33.89,83.18 -94.74,94.21 -1001.14,98.77 -1179.62,-20.53 -178.83,-38.12 -262.14,-155.94 -320.35,-323.93 -50.05,-144.4 -112.47,-418.05 -35.55,-535.96 -124.22,-870.57 950.26,-669.22 1539.01,-664.55 41.63,123.35 28.27,277.8 15.38,410.09l-967.57 28.06 -59.09 342.41zm-654.86 -15.6l4.11 206.23 -1053.17 0c40.95,205.51 162.36,239.07 384.33,243.63 214.49,4.41 443.69,-11.75 660.89,-14.26l-10.55 371.14c-342.76,13.65 -1212.47,79.02 -1419.22,-118.53 -164.33,-157.07 -137.26,-1135.14 -111.27,-1407.45l81.49 -33.87 1466.2 -11.7 -6.45 402.86 -1047.55 22.21 0.26 182.83 1052.23 10.26 -1.3 146.65zm1387.93 -1242.22c188.4,67.63 267.76,135.98 180.08,385.56 -116.42,-111.4 -167.35,-165.53 -180.08,-385.56zm-491.56 21.81c-98.54,-74.56 -100.83,-132.08 -31.18,-235.43 172.55,38.54 132.22,164.41 31.18,235.43zm-4671.49 -676.15c221.66,103.86 186.58,-72.56 381.27,85.38l723.56 873.5c-484.96,-187.34 -571.23,-564.39 -785.77,-749.99 -159.71,-138.13 -239.13,-34.99 -319.06,-208.89zm5567.13 -238.6c-217.97,99.95 -470.35,-195.91 -525.08,-315.68 132.48,34.38 207.43,73.38 312.31,133.67 100.72,57.98 184.71,90.05 212.77,182.01zm1079.37 11.03c65.17,-183.8 267.45,-306.7 450.81,-371.45 -42.57,200.32 -221.98,335.17 -450.81,371.45zm-7855.17 1602.23c-56.76,-226.44 -141.52,-229.93 -141.58,-720.53 -0.05,-307.67 33.37,-529.59 179.1,-748.7 281.07,-422.61 523.47,-616.37 1240.12,-600.41 -195.99,82.46 -411.37,95.24 -633.13,214.34 -806.98,433.54 -631.78,1242.73 -644.51,1855.3zm6040.55 -1931.35c-25.94,-123.87 -9.15,-231.11 29.21,-324.71 244.53,-43 340.05,111.46 406.94,250.05l-329.82 -101.91c-34.3,117.92 -20.11,110.17 -106.33,176.57zm948.76 -94.16c-146.67,25.35 -247.39,-90.36 -289.65,-198.01 91.27,26.78 273.17,86.36 289.65,198.01zm560.47 -16.62c54.78,-104.07 101.34,-190.94 225.61,-233.84 -6.91,154.66 -86.74,192.38 -225.61,233.84zm-996.11 -171.75c-158.31,-414.14 168.45,-408.14 261.42,-87.95l-160.38 -67.37c-32.02,49.05 -19.65,52.95 -31.03,74.04 -39.71,73.53 -1.61,29.87 -70.01,81.28zm-1437.92 214.64c-224.78,385.16 34.56,524.16 120.63,670.09 -549.3,-225.46 -341.51,-748.44 62.88,-1134.16 459.75,-438.57 51.51,-984.58 70.79,-1440.96 -2.6,63.01 202.07,500.3 241.93,646.9 195.89,719.61 -219.84,784.62 -496.23,1258.13zm6405.81 521.9c-25.93,-217.3 -24.84,-253.48 2.45,-474.95 37.62,-304.59 -20.53,-198.37 -117.2,-375.6 -64.97,-119.1 -52.39,-309.62 -65.69,-455.04 -28.12,-307.93 -13.47,-192.53 80.03,-414.25 114.65,-272.06 -175.25,-130.54 -22.81,-787.39 145.21,-625.71 179.25,-225.73 347.38,-686.87l575.75 65.22c-73.54,519.43 -243.96,1091.62 -372.59,1595.87 -44.69,175.18 -302.11,1395.14 -427.32,1533.01zm-7025.53 398.24c83.94,345.33 170.42,189.86 228.84,404.75 -723.67,-159.73 -676.27,-1121.79 -699.97,-1893.89 -49.63,-1618.71 -370.46,-1652.83 -402.89,-2150.31l324.41 -2.51c55.14,93.18 57.69,122.94 121.25,217.77 120.58,179.85 149.94,608.46 86.33,815.31 -97.34,316.59 -82.84,213.15 2.18,514.04 93.92,332.15 -12.21,1085.88 15.91,1185.22 30.66,108.32 72.76,82.56 128.47,180.16l195.47 729.46zm5247.14 402.86c90.54,-212.44 172.18,-93.34 242.56,-428.05 38.04,-180.73 78.68,-349.03 122.03,-521.7 63.14,-251.38 163.09,-257.23 190.94,-455.04 47.97,-340.61 -130.71,-689.84 29.47,-1175.57 105.71,-320.55 -9.35,-251.64 -37.26,-517.08 -82.74,-786.31 164.39,-584.96 207.84,-1051.44l423.94 51.36c-121.31,315.16 -275.35,601.59 -359.03,947.69 -293.49,1214.11 178.63,2931.54 -820.49,3149.83zm-6798.15 -3672.45c108.98,155.99 151.08,334.51 156.8,567.27l68.03 131.3c-82.69,703.65 343.59,738.08 49.94,1626.41 -224.41,678.91 -121.82,961.8 185.23,1472.31 -57.42,-74.76 -118.86,-101.5 -186.11,-189.81 -661.09,-867.59 131.23,-1398.73 -75.41,-2120.23l-66.32 331.68c-155.4,-624.06 -409.38,-1379.43 -485.37,-2053.06l119.23 -19.35c-138.25,-329.48 -183.62,-667.83 -662.7,-579.78 -306.38,56.34 -633.6,270.06 -844.4,400.55 102.8,-201.61 687.85,-623.25 1119.07,-559.52 380.23,56.24 391.56,458.64 531.63,742.14 39.55,80.04 136.06,164.4 90.38,250.09zm1949.54 3521.23c-5.62,-105.76 -481.79,-865.34 -531.89,-2354.43 -29.26,-869.59 125.98,-1755.86 579.23,-2300.14 -61.38,165.18 -136.11,266.52 -187.83,479.62 -267.71,1103.33 -334.08,1903.75 -110.23,3042.17l250.72 1132.78zm416.61 -3949.48c-330.91,-698.98 217.71,-1425.52 712.12,-1583.35 -109.03,166.3 -184.29,179.85 -292.08,321.42 -86.48,113.55 -154.52,185.75 -228.63,327.58 -151.65,290.22 -171.82,567.41 -191.41,934.35zm-3907.81 -1251.92c124.21,-485.11 1047.92,-710.48 1666.29,-490.3 -358.25,48.34 -607.51,40.28 -960.51,137.32 -242.92,66.75 -610.83,214.89 -705.78,352.98zm8684.02 266.46c177.65,-411.27 834.99,-742.59 1316.26,-832.34 117.56,-21.96 343.9,-40.38 461.62,-2.62l93.29 47.62c4.16,-6.67 15.17,10.21 22.19,16.11 -401.69,-13.13 -774.49,121.87 -1085.55,267.19 -542.33,253.33 -687.7,441.13 -807.81,504.04zm1357.21 -18.98c190.33,-86.41 221.46,-80.98 432.73,-57.47 242.24,26.99 268.43,-59.48 462.76,-70.46 250.14,-14.06 712.9,92.32 1048.02,96.52 -108.31,-300.07 -464.63,-600.05 -768.72,-727.35 -1478.77,-618.94 -2574.41,532.93 -2644.93,566.18 -127.33,59.98 -459.7,-35.35 -643.32,-43.1 -67.77,-138.08 -537.18,-533.29 -684.94,-634.89 -922.1,-634.18 -2128.9,-533.6 -3009.05,120.38 -579.55,430.61 -267.71,606.97 -1069.91,671.88 -55.71,-139.05 -239.43,-230.29 -354.66,-325.27 -92.09,-75.94 -244.89,-200.99 -376.49,-275.29 -993.45,-561.05 -2448.16,-138.59 -2759.32,640.38 304.98,8.37 943.09,-113.81 1121.36,-80.35 373.94,70.19 -8.73,77.63 505.95,41.41 101.5,-7.14 251.29,30.01 338.81,90.66 84.77,58.81 27.75,9.65 76.61,75.33 -859.11,77.53 -334.5,11.7 -888.26,-12.06 -654.13,-28.06 -1631.31,506.82 -1582.88,1373.28 542.7,-140.13 430.65,-209.82 740.51,-333.32 89.81,140.64 605.01,2370.53 622.63,2644.13 -384.5,-143.62 -638.95,-279.81 -1122.3,-147.16 -323.01,88.61 -679.54,315.01 -833.84,531.34 -353.88,496.04 -578.98,1665.66 83.47,1987.85 59.24,-196.63 93.86,-391.77 154.87,-582.76 167.41,-523.49 174.99,-208.79 310.69,-431.9 131.39,-216.07 32.85,-345.23 275.98,-468.63 234.39,-119 316.41,47.87 559.17,84.41 204.04,543.6 8.52,583.32 13.05,1158.12 3.53,451.19 0.1,903.1 -0.11,1354.4 44.85,94.51 179.41,158.91 250.2,214.23 95.89,74.91 321.71,383.56 405.43,491.67 107.12,138.29 117.25,213.72 216.47,231.37 363.86,0 727.72,0 1091.63,0 543.37,0 503.51,-66.24 796.58,246.25 627,668.6 1479.55,1473.7 2152.44,2123.98 188.97,182.57 368.59,345.18 548.99,535.04 160.38,168.71 292.81,372.37 618.99,442.62 16.94,-19.55 18.03,-21.29 39.24,-59.57 269.58,-487.06 563.17,-592.51 1017.15,-1120.41 154.62,-179.85 400.34,-365.25 580.84,-535.3 140.38,-132.18 1620.56,-1600.18 1713.02,-1625.89 169.84,-47.2 1912.01,-6.41 2238.87,-6.82 56.65,-426.97 358.24,-806.84 451.38,-1224.06 34.14,-153.02 20.58,-1391.86 11.79,-1592.13 -297.23,-135.31 -202.84,-191.6 -652.46,-188.27 -0.67,-103.08 29.21,-307.56 67.46,-385.35 60.91,-123.97 -29.57,-39.21 122.4,-96.32 283.25,-106.52 278.31,-145.06 481.11,-25.86 337.19,198.27 10.6,188.52 372.22,525.8 85.5,79.69 111.12,136.8 164.29,269.03 69.28,172.41 126.45,540.94 191.98,657.16 803.34,-368.06 570.14,-2730.7 -1434.7,-2537.35 21.16,-171.44 527.21,-2190.79 560.84,-2240.82l361.88 101.29c1.87,-213.56 -38.4,-428.51 -141,-575.01 -98.07,-140.03 -114.96,-63.52 -79.57,-253.23 23.23,-124.79 52.39,-181.85 25.26,-307.82 -352.68,-76.56 -700.59,-130.95 -1045.42,-198.07 -386.63,-75.22 -759.95,12.11 -1135.19,-112.42z"/>
  <path class="fil1" d="M7880.38 13465.22c114.95,-81.32 1770.08,-2277.38 1958.49,-2640.3l-4238 1.08c76.53,167.89 530.8,674.68 705.33,878.72l998.95 1117.02c89.53,90.23 487.77,591.84 575.23,643.48z"/>
  <path class="fil1 str0" d="M11934.42 7114.53c125.21,-137.87 382.63,-1357.83 427.32,-1533.01 128.63,-504.25 299.05,-1076.44 372.59,-1595.87l-575.75 -65.22c-168.13,461.14 -202.17,61.16 -347.38,686.87 -152.44,656.85 137.46,515.33 22.81,787.39 -93.5,221.72 -108.15,106.32 -80.03,414.25 13.3,145.42 0.72,335.94 65.69,455.04 96.67,177.23 154.82,71.01 117.2,375.6 -27.29,221.47 -28.38,257.65 -2.45,474.95z"/>
  <path class="fil2" d="M11965.09 8635.39l-40.85 374.48c-36.23,167.17 -35.45,139.72 -391.67,139.72 -8.42,156.81 4,275.29 -111.89,367.81 -134.4,48.08 -304.56,29.5 -464.07,28.48l7.18 -832.65c-137.57,105.34 -46.52,246.45 -96.78,436.36l-317.44 -23.24 11.53 -760.92c-116.73,34.69 -94.69,-18.32 -112.62,148.76l17.62 1392.16c287.09,21.14 1169.95,79.53 1387.51,-56.09 231.85,-144.54 212.36,-978.27 175.92,-1115.38 -25.72,-96.77 5.3,-49.26 -64.44,-99.49z"/>
  <path class="fil2" d="M8663.54 9922.05c57.79,-118.38 41.68,-220.34 45.94,-356.16l-325.61 2c-257.1,-25.6 -723.51,65.83 -698.14,-229.83 180.13,-5.03 360.79,-7.18 541.03,-10.41 133.78,-2.42 387.09,31.76 496.13,-40.44l-1.25 -184.57c-456.73,65.58 -255.91,48.7 -744.4,48.7 -238.14,0 -539.06,31.19 -716.8,-48.85l-21.16 -751.84c-119.9,55.37 -79.88,183.65 -76.76,320.5 7.07,315.88 -41.84,925.99 95.73,1109.89 177.59,237.32 1056.55,141.11 1405.29,141.01z"/>
  <path class="fil2" d="M5396.65 9113.77c-155.5,5.14 -199.47,39 -381.16,38.49 -325.61,-1.03 -815.76,16.68 -1084.67,-38.49l2.44 -753.11 -81.49 33.87c-25.99,272.31 -53.06,1250.38 111.27,1407.45 206.75,197.55 1076.46,132.18 1419.22,118.53l10.55 -371.14c-217.2,2.51 -446.4,18.67 -660.89,14.26 -221.97,-4.56 -343.38,-38.12 -384.33,-243.63l1053.17 0 -4.11 -206.23z"/>
  <path class="fil1 str0" d="M10156.03 7915.63c999.12,-218.29 527,-1935.72 820.49,-3149.83 83.68,-346.1 237.72,-632.53 359.03,-947.69l-423.94 -51.36c-43.45,466.48 -290.58,265.13 -207.84,1051.44 27.91,265.44 142.97,196.53 37.26,517.08 -160.18,485.73 18.5,834.96 -29.47,1175.57 -27.85,197.81 -127.8,203.66 -190.94,455.04 -43.35,172.67 -83.99,340.97 -122.03,521.7 -70.38,334.71 -152.02,215.61 -242.56,428.05z"/>
  <path class="fil1 str0" d="M5137.73 7917.52c-58.42,-214.89 -144.9,-59.42 -228.84,-404.75l-195.47 -729.46c-55.71,-97.6 -97.81,-71.84 -128.47,-180.16 -28.12,-99.34 78.01,-853.07 -15.91,-1185.22 -85.02,-300.89 -99.52,-197.45 -2.18,-514.04 63.61,-206.85 34.25,-635.46 -86.33,-815.31 -63.56,-94.83 -66.11,-124.59 -121.25,-217.77l-324.41 2.51c32.43,497.48 353.26,531.6 402.89,2150.31 23.7,772.1 -23.7,1734.16 699.97,1893.89z"/>
  <path class="fil3" d="M12114.51 9106.95c287.61,12.01 262.51,37.87 728.29,37.82 222.7,0 516.09,47.77 717.37,-37.82l51.25 -131.41c-217.71,-77.89 -736.09,42.28 -1003.17,-36.59 -15.02,-147.68 -17.57,-167.02 137.1,-183.44 257.68,-27.35 672.26,44.28 918.98,-22.22l4.52 -375.71c-373.63,-18.98 -875.37,-51.57 -1247.76,23.55 -363.44,73.33 -281.22,116.43 -306.58,725.82z"/>
  <path class="fil2" d="M5879.68 9873.25l1161.02 22.68 5.56 -785.9 -703.55 -0.57 3.32 177.75 128.27 47.98c65.07,18.47 15.18,-16.52 112.47,33.45l5.56 172.21 -450.55 -12.88c-76.29,-141.93 -83.88,-218.54 -90.27,-398.6l-507.15 -13.49 -20.58 -102.52c-76.92,117.91 -14.5,391.56 35.55,535.96 58.21,167.99 141.52,285.81 320.35,323.93z"/>
  <path class="fil2" d="M12114.51 9106.95l15.17 202.02 1049.74 10.72c-22.08,258.77 -145.15,247.48 -398.31,242.71 -219.64,-4.1 -437.51,-12.62 -660.36,-14.83l13.04 372.43c345.93,3.69 953.85,47.05 1264.8,-23.4 219.79,-49.83 263.61,-116.38 272.29,-363.29 4.41,-127.67 64.08,-503.94 -59.46,-557.77l-51.25 131.41c-201.28,85.59 -494.67,37.82 -717.37,37.82 -465.78,0.05 -440.68,-25.81 -728.29,-37.82z"/>
  <path class="fil3" d="M8721.64 9102.64c3.43,-131.21 -18.14,-116.38 -27.02,-135.77l-1021.52 -3.18 -2.03 -193.35 1048.18 -20.47 4.68 -400.29 -1484.65 1.07 21.16 751.84c177.74,80.04 478.66,48.85 716.8,48.85 488.49,0 287.67,16.88 744.4,-48.7z"/>
  <path class="fil3" d="M5396.65 9113.77l1.3 -146.65 -1052.23 -10.26 -0.26 -182.83 1047.55 -22.21 6.45 -402.86 -1466.2 11.7 -2.44 753.11c268.91,55.17 759.06,37.46 1084.67,38.49 181.69,0.51 225.66,-33.35 381.16,-38.49z"/>
  <path class="fil4" d="M9288.04 9128.96l15.02 -349.38c128.32,-33.61 425.08,-40.39 528.82,16.98l36.33 182.98 56.44 75.38c140.12,166.1 243.02,60.65 438.18,53.98 35.91,-439.6 21.72,-688.82 -412.51,-749.47 -176.7,-24.68 -971.21,-32.69 -1083.67,-1.59l11.33 750.6c100.98,13.85 80.24,28.01 188.97,26.83 140.84,-1.48 63.51,-38.43 221.09,-6.31z"/>
  <path class="fil2" d="M2656.61 8352.91l-1.19 749.58c-140.17,46.28 -228.21,53.21 -386.37,0l9.41 -744.91c-108,37.97 -77.8,13.55 -87.73,156.81 -2.7,38.64 4.68,141.73 5.77,187.81l13.62 1208.36 1550.44 -0.36 2.34 -344.93 -1066.06 -22.21 3.01 -1086.55c-22.14,-117.3 13.57,-30.94 -43.24,-103.6z"/>
  <path class="fil4" d="M10561.1 8365.43l-11.53 760.92 317.44 23.24c50.26,-189.91 -40.79,-331.02 96.78,-436.36 158.3,27.86 382.05,-4.21 507.46,81.48 83.62,121.77 61.89,190.53 61.32,354.88 356.22,0 355.44,27.45 391.67,-139.72l40.85 -374.48 -4.89 -148.5c-246.66,-189.34 -1064.91,-183.34 -1399.1,-121.46z"/>
  <path class="fil4" d="M5523.78 9013.36l20.58 102.52 507.15 13.49 59.09 -342.41 967.57 -28.06c12.89,-132.29 26.25,-286.74 -15.38,-410.09 -588.75,-4.67 -1663.23,-206.02 -1539.01,664.55z"/>
  <path class="fil5" d="M5307.42 7764.41l-250.72 -1132.78c-223.85,-1138.42 -157.48,-1938.84 110.23,-3042.17 51.72,-213.1 126.45,-314.44 187.83,-479.62 -453.25,544.28 -608.49,1430.55 -579.23,2300.14 50.1,1489.09 526.27,2248.67 531.89,2354.43z"/>
  <path class="fil1 str1" d="M3556.36 5730.43l-70.79 -299.62c-72.34,-102.42 -81.7,-203.04 6.34,-294.07l31.76 -123.1 -8.99 -203.19c-5.72,-232.76 -47.82,-411.28 -156.8,-567.27 -67.52,-79.17 -167.72,-184.46 -233.98,-253.48l-119.23 19.35c75.99,673.63 329.97,1429 485.37,2053.06l66.32 -331.68z"/>
  <path class="fil0" d="M11532.57 9149.59c0.57,-164.35 22.3,-233.11 -61.32,-354.88 -125.41,-85.69 -349.16,-53.62 -507.46,-81.48l-7.18 832.65c159.51,1.02 329.67,19.6 464.07,-28.48 115.89,-92.52 103.47,-211 111.89,-367.81z"/>
  <path class="fil2" d="M9288.04 9128.96c-157.58,-32.12 -80.25,4.83 -221.09,6.31 -108.73,1.18 -87.99,-12.98 -188.97,-26.83l-11.33 -750.6c-86.07,109.96 -39.97,98.93 -39.97,99.03l-2.6 276.22c0.42,283.86 -42.1,1011.73 9.72,1183.78l450.91 4.56 3.33 -792.47z"/>
  <path class="fil2" d="M10362.83 9108.9c-195.16,6.67 -298.06,112.12 -438.18,-53.98l-56.44 -75.38c-6.76,207.46 -28.48,765.38 25.88,937.17l457.2 5.44 11.54 -813.25z"/>
  <path class="fil5" d="M3523.67 5013.64l-31.76 123.1 -6.34 294.07 70.79 299.62c206.64,721.5 -585.68,1252.64 75.41,2120.23 67.25,88.31 128.69,115.05 186.11,189.81 -307.05,-510.51 -409.64,-793.4 -185.23,-1472.31 293.65,-888.33 -132.63,-922.76 -49.94,-1626.41 -5.3,5.8 -13.15,13.35 -16.37,17.04 -3.17,3.69 -12.32,13.96 -15.49,17.65 -4.16,4.93 -21.67,28.53 -27.18,37.2z"/>
  <path class="fil5" d="M412.86 8591.87c12.73,-612.57 -162.47,-1421.76 644.51,-1855.3 221.76,-119.1 437.14,-131.88 633.13,-214.34 -716.65,-15.96 -959.05,177.8 -1240.12,600.41 -145.73,219.11 -179.15,441.03 -179.1,748.7 0.06,490.6 84.82,494.09 141.58,720.53z"/>
  <path class="fil5" d="M5649.24 7262.72c-86.07,-145.93 -345.41,-284.93 -120.63,-670.09 276.39,-473.51 692.12,-538.52 496.23,-1258.13 -39.86,-146.6 -244.53,-583.89 -241.93,-646.9 -19.28,456.38 388.96,1002.39 -70.79,1440.96 -404.39,385.72 -612.18,908.7 -62.88,1134.16z"/>
  <path class="fil4" d="M2656.61 8352.91l-378.15 4.67 -9.41 744.91c158.16,53.21 246.2,46.28 386.37,0l1.19 -749.58z"/>
  <path class="fil5" d="M3123.9 3989.7c66.26,69.02 166.46,174.31 233.98,253.48 45.68,-85.69 -50.83,-170.05 -90.38,-250.09 -140.07,-283.5 -151.4,-685.9 -531.63,-742.14 -431.22,-63.73 -1016.27,357.91 -1119.07,559.52 210.8,-130.49 538.02,-344.21 844.4,-400.55 479.08,-88.05 524.45,250.3 662.7,579.78z"/>
  <path class="fil5" d="M10500.24 2829.47c120.11,-62.91 265.48,-250.71 807.81,-504.04 311.06,-145.32 683.86,-280.32 1085.55,-267.19 -7.02,-5.9 -18.03,-22.78 -22.19,-16.11l-93.29 -47.62c-117.72,-37.76 -344.06,-19.34 -461.62,2.62 -481.27,89.75 -1138.61,421.07 -1316.26,832.34z"/>
  <path class="fil5" d="M5724.03 3814.93c19.59,-366.94 39.76,-644.13 191.41,-934.35 74.11,-141.83 142.15,-214.03 228.63,-327.58 107.79,-141.57 183.05,-155.12 292.08,-321.42 -494.41,157.83 -1043.03,884.37 -712.12,1583.35z"/>
  <path class="fil5" d="M1816.22 2563.01c94.95,-138.09 462.86,-286.23 705.78,-352.98 353,-97.04 602.26,-88.98 960.51,-137.32 -618.37,-220.18 -1542.08,5.19 -1666.29,490.3z"/>
  <path class="fil6" d="M6947.98 10648.43c88.61,-56.65 76.5,-133 100.77,-248.45 20.27,-96.52 45.06,-175.8 45.74,-272.37 -156.13,0 -140.69,-3.49 -205.55,117.25 -45.48,84.61 -77.23,157.78 -118.19,219.31l-21.57 -335.02 -136.22 -1.54 -94.64 398.59c-22.29,214.08 -21.67,52.55 24.22,122.23 99.63,-69.12 81.34,-279.24 117.72,-382.17l31.29 382.17c159.81,-8.72 113.04,5.18 176.7,-146.75 34.77,-82.92 65.02,-141.73 104,-206.13 -7.54,92.98 -13.67,97.96 -34.46,186.42 -37.63,160.05 -7.95,137.88 10.19,166.46z"/>
  <path class="fil5" d="M1621.53 7217.21c79.93,173.9 159.35,70.76 319.06,208.89 214.54,185.6 300.81,562.65 785.77,749.99l-723.56 -873.5c-194.69,-157.94 -159.61,18.48 -381.27,-85.38z"/>
  <path class="fil3" d="M8222.08 10210.58l10.87 -67.58 -77.5 0 -71.25 300.69c-135.02,-208.27 -62.63,-294.84 -231.59,-315.88 -34.25,68.76 -51.82,158.87 -76.61,255.64 -94.9,369.76 -47.86,212.8 -17.1,264.57 121.31,-71.48 38.31,-48.13 127.23,-311.83 120.53,190.73 80.51,242.82 184.66,311.83 74.53,-29.71 48.6,2.31 84.04,-79.53l67.25 -357.91z"/>
  <path class="fil6" d="M8664.16 10518.46c-392.44,207.45 -313.45,-368.22 -44.02,-294.18 155.5,42.69 -17.1,88.67 189.8,69.38 -114.39,-398.91 -773.92,-24.79 -405.33,344.05 270.93,26.83 377.06,1.28 380.23,-267.29l-235.28 24.94c22.51,119.97 77.7,27.76 114.6,123.1z"/>
  <path class="fil3" d="M7562.03 10281.8c22.14,276.32 -234.55,353.39 -292.76,195.66 -29.99,-81.23 21.47,-194.02 89.39,-233.63 91.01,-53 149.89,-0.46 203.37,37.97zm-371.08 307.93c414.01,194.73 579.28,-227.83 428.93,-396.39 -158.05,-177.08 -542.49,-28.38 -428.93,396.39z"/>
  <path class="fil6" d="M9391.05 10547.24c-400.55,33.1 -14.14,-240.29 -135.03,-419.63 -70.32,21.91 -45.21,-32.38 -90.17,85.07 -218.39,570.4 260.64,484.24 352.43,318.14 51.19,-92.62 85.39,-288.12 98.17,-398.9 -144.07,-2.16 -110.96,26.22 -142.51,171.54 -25,115.09 -37.52,165.38 -82.89,243.78z"/>
  <path class="fil3" d="M6230.65 10282.68c0.84,1.28 29.26,-14.73 28.85,80.56 -0.36,77.43 -7.74,37.51 -29.16,76.55l-84.3 -14.41 84.61 -142.7zm-315.21 365.34c263.76,-15.03 19.65,-66.55 221.61,-123.1 284.45,-39.05 25,82.82 266.88,123.1 -18.19,-145.06 -38.3,-422.71 -110.91,-519.08 -151.08,10.98 -324.41,374.02 -377.58,519.08z"/>
  <path class="fil7" d="M7046.26 9110.03l-5.56 785.9 -1161.02 -22.68c178.48,119.3 1084.88,114.74 1179.62,20.53 42.15,-53.16 13.36,50.64 33.89,-83.18 18.09,-118.22 38.51,-752.4 -34.77,-813.1l-12.16 112.53z"/>
  <path class="fil6" d="M9788.22 10236.08c55.56,-34.53 97.4,-17.85 146.93,10.16 138.61,78.51 -80.09,48.24 138.71,58.7 -54.26,-217.41 -190.43,-212.22 -386.15,-109.8l1.3 152.29c96.4,56.91 208.35,54.91 246.24,171.54 -191,117.76 -132.32,-45.98 -292.08,-46.39 -36.07,275.86 450.34,208.54 388.18,-15.7 -39.09,-140.85 -191.42,-29.81 -243.13,-220.8z"/>
  <path class="fil0" d="M7562.03 10281.8c-53.48,-38.43 -112.36,-90.97 -203.37,-37.97 -67.92,39.61 -119.38,152.4 -89.39,233.63 58.21,157.73 314.9,80.66 292.76,-195.66z"/>
  <polygon class="fil8" points="6342.71,9109.46 7046.26,9110.03 7058.42,8997.5 6347.18,9004.58 "/>
  <path class="fil5" d="M6453.41 6660.52c86.22,-66.4 72.03,-58.65 106.33,-176.57l329.82 101.91c-66.89,-138.59 -162.41,-293.05 -406.94,-250.05 -38.36,93.6 -55.15,200.84 -29.21,324.71z"/>
  <path class="fil9" d="M7188.66 6978.61c-28.06,-91.96 -112.05,-124.03 -212.77,-182.01 -104.88,-60.29 -179.83,-99.29 -312.31,-133.67 54.73,119.77 307.11,415.63 525.08,315.68z"/>
  <path class="fil10" d="M8268.03 6989.64c228.83,-36.28 408.24,-171.13 450.81,-371.45 -183.36,64.75 -385.64,187.65 -450.81,371.45z"/>
  <path class="fil5" d="M6966.53 6377.99c68.4,-51.41 30.3,-7.75 70.01,-81.28 11.38,-21.09 -0.99,-24.99 31.03,-74.04l160.38 67.37c-92.97,-320.19 -419.73,-326.19 -261.42,87.95z"/>
  <path class="fil5" d="M6964.66 8257.11c87.68,-249.58 8.32,-317.93 -180.08,-385.56 12.73,220.03 63.66,274.16 180.08,385.56z"/>
  <path class="fil5" d="M6293.02 7893.36c101.04,-71.02 141.37,-196.89 -31.18,-235.43 -69.65,103.35 -67.36,160.87 31.18,235.43z"/>
  <path class="fil11" d="M7402.17 6566.36c-16.48,-111.65 -198.38,-171.23 -289.65,-198.01 42.26,107.65 142.98,223.36 289.65,198.01z"/>
  <path class="fil12" d="M9288.04 9128.96c48.02,-60.39 36.07,-257.48 38.61,-338.81l505.23 6.41c-103.74,-57.37 -400.5,-50.59 -528.82,-16.98l-15.02 349.38z"/>
  <path class="fil13" d="M7962.64 6549.74c138.87,-41.46 218.7,-79.18 225.61,-233.84 -124.27,42.9 -170.83,129.77 -225.61,233.84z"/>
  <path class="fil14" d="M8663.54 9922.05c75.36,-38.28 40.85,7.49 67.98,-79.84l-14.66 -299.98c-113.92,-8.21 -249.93,-12.93 -332.99,25.66l325.61 -2c-4.26,135.82 11.85,237.78 -45.94,356.16z"/>
  <path class="fil15" d="M3485.57 5430.81l6.34 -294.07c-88.04,91.03 -78.68,191.65 -6.34,294.07z"/>
  <path class="fil0" d="M6146.04 10425.38l84.3 14.41c21.42,-39.04 28.8,0.88 29.16,-76.55 0.41,-95.29 -28.01,-79.28 -28.85,-80.56l-84.61 142.7z"/>
  <path class="fil16" d="M3523.67 5013.64c5.51,-8.67 23.02,-32.27 27.18,-37.2 3.17,-3.69 12.32,-13.96 15.49,-17.65 3.22,-3.69 11.07,-11.24 16.37,-17.04l-68.03 -131.3 8.99 203.19z"/>
  <path class="fil17" d="M8222.08 10210.58l35.5 -91.9 -82.27 11.85c-3.74,-7.08 -13.05,8.68 -19.86,12.47l77.5 0 -10.87 67.58z"/>
 </g>
</svg>
